 http://www.imdb.com/title/tt0165929/

Source: Romeo.Must.Die.2000.720p.BluRay.x264-KaKa Thanks!

Subs: Arabic, Danish, Dutch, English, Finnish, Greek, Hungarian, Norwegian, Romanian, Swedish and Vietnamese.

Sample and Screens included.

General
Complete name                    : Romeo Must Die-720p MP4 AAC x264 BRRip 2000-CC.mp4
Format                           : MPEG-4
Format profile                   : Base Media
Codec ID                         : isom
File size                        : 2.66 GiB
Duration                         : 1h 55mn
Overall bit rate                 : 3 309 Kbps
Encoded date                     : UTC 2012-08-30 11:00:16

Video
ID                               : 1
Format                           : AVC
Format/Info                      : Advanced Video Codec
Format profile                   : High@L3.1
Format settings, CABAC           : Yes
Format settings, ReFrames        : 5 frames
Codec ID                         : avc1
Codec ID/Info                    : Advanced Video Coding
Duration                         : 1h 55mn
Bit rate mode                    : Variable
Bit rate                         : 2 921 Kbps
Nominal bit rate                 : 2 965 Kbps
Maximum bit rate                 : 28.5 Mbps
Width                            : 1 280 pixels
Height                           : 528 pixels
Display aspect ratio             : 2.35:1
Frame rate mode                  : Variable
Frame rate                       : 23.976 fps
Minimum frame rate               : 19.048 fps
Maximum frame rate               : 24.390 fps
Resolution                       : 24 bits
Colorimetry                      : 4:2:0
Scan type                        : Progressive
Bits/(Pixel*Frame)               : 0.180
Stream size                      : 2.35 GiB (88%)
Writing library                  : x264 core 112

Audio
ID                               : 2
Format                           : AAC
Format/Info                      : Advanced Audio Codec
Format version                   : Version 4
Format profile                   : LC
Format settings, SBR             : No
Codec ID                         : 40
Duration                         : 1h 55mn
Bit rate mode                    : Variable
Bit rate                         : 384 Kbps
Maximum bit rate                 : 642 Kbps
Channel(s)                       : 6 channels
Channel positions                : Front: L C R, Rear: L R, LFE
Sampling rate                    : 48.0 KHz
Resolution                       : 16 bits
Stream size                      : 316 MiB (12%)
Language                         : English

Enjoy...

Requested by aartje80.

Coming up: The Bourne Trilogy, Blood Simple, Batman Begins and more...